<svg width="32" height="32" viewBox="0 0 32 32" fill="none" xmlns="http://www.w3.org/2000/svg">
<g clip-path="url(#clip0_21_34)">
<path d="M2.39997 5.2726C2.39997 2.605 4.15685 0.799999 6.75692 0.799999H25.243C27.8419 0.799999 29.6 2.60373 29.6 5.2726V31.2L27.3683 28.5387V5.2726C27.3683 4.69577 27.1449 4.14252 26.7472 3.73429C26.3494 3.32605 25.8098 3.09621 25.2467 3.0952H6.76063C6.19771 3.09654 5.65827 3.3265 5.26057 3.73466C4.86287 4.14282 4.63936 4.69588 4.63903 5.2726V24.0661C4.63903 24.643 4.86244 25.1962 5.26021 25.6044C5.65798 26.0127 6.19761 26.2425 6.76063 26.2435H22.2683L24.4839 28.521L6.75692 28.5387C4.15808 28.5387 2.39997 26.735 2.39997 24.0661V5.2726Z" fill="#FF383C"/>
<path d="M8.5625 22.5H6.16016C6.03516 22.5 5.97266 22.4453 5.97266 22.3359L5.94922 5.98828C5.94922 5.86328 6.01172 5.80078 6.13672 5.80078H8.30469L12.3594 15.2578L12.2422 5.98828C12.2422 5.86328 12.3125 5.80078 12.4531 5.80078H14.832C14.9258 5.80078 14.9727 5.86328 14.9727 5.98828L14.9961 22.3594C14.9961 22.4531 14.957 22.5 14.8789 22.5H12.7695L8.60938 13.6641L8.78516 22.3125C8.78516 22.4375 8.71094 22.5 8.5625 22.5Z" fill="#FF383C"/>
<path d="M21.4766 22.5H17.1758C17.1133 22.5 17.082 22.4609 17.082 22.3828L17.1289 5.89453C17.1289 5.83203 17.1602 5.80078 17.2227 5.80078H21.8398C22.7383 5.80078 23.5547 6.01953 24.2891 6.45703C25.0078 6.89453 25.5742 7.47656 25.9883 8.20312C26.4023 8.92188 26.6094 9.70312 26.6094 10.5469C26.6094 11.2344 26.4531 11.875 26.1406 12.4688C25.8281 13.0625 25.457 13.543 25.0273 13.9102C25.4883 14.3711 25.8477 14.9062 26.1055 15.5156C26.3633 16.125 26.4922 16.7656 26.4922 17.4375C26.4922 18.3672 26.2695 19.2148 25.8242 19.9805C25.3711 20.7461 24.7656 21.3594 24.0078 21.8203C23.25 22.2734 22.4062 22.5 21.4766 22.5ZM21.8398 8.64844H20.0117V12.4219H21.8398C22.3945 12.4219 22.8438 12.2266 23.1875 11.8359C23.5312 11.4375 23.7031 11.0078 23.7031 10.5469C23.7031 10.0391 23.5195 9.59766 23.1523 9.22266C22.7852 8.83984 22.3477 8.64844 21.8398 8.64844ZM21.4766 15.3281H20.0117L19.9883 19.5703H21.4766C22.0547 19.5703 22.5508 19.3594 22.9648 18.9375C23.3789 18.5156 23.5859 18.0156 23.5859 17.4375C23.5859 16.8594 23.3789 16.3633 22.9648 15.9492C22.5508 15.5352 22.0547 15.3281 21.4766 15.3281Z" fill="white"/>
<path d="M6.84267 29.1987L6.86134 29.18H6.828L6.84267 29.1987Z" fill="black"/>
</g>
<defs>
<clipPath id="clip0_21_34">
<rect width="32" height="32" fill="white"/>
</clipPath>
</defs>
</svg>
